<!-- Generated by IcoMoon.io -->
<svg version="1.1" xmlns="http://www.w3.org/2000/svg" width="1024" height="1024" viewBox="0 0 1024 1024">
<title>compose</title>
<g id="icomoon-ignore">
</g>
<path fill="#168eea" d="M1014.784 778.24c12.245 6.059 12.245 11.392 0 15.957l-484.565 222.848c-12.245 6.187-24.32 6.187-36.437 0l-484.693-222.848c-12.117-4.565-12.117-9.899 0-16l116.139-52.48c12.117-5.973 24.32-5.973 36.352 0l332.245 152.448c12.16 5.973 24.32 5.973 36.437 0l332.245-152.491c12.075-5.973 24.235-5.973 36.352 0l115.925 52.48zM1014.784 502.869c12.245 6.101 12.245 12.16 0 18.176l-484.565 223.061c-12.245 4.437-24.32 4.437-36.437 0l-484.693-223.147c-12.117-6.101-12.117-12.117 0-18.176l116.139-52.352c12.117-6.144 24.32-6.144 36.352 0l332.245 152.32c12.16 6.144 24.32 6.144 36.437 0l332.245-152.32c12.075-6.144 24.235-6.144 36.352 0l115.925 52.309zM9.131 245.76c-12.16-6.101-12.16-11.392 0-16l484.693-222.933c12.075-5.973 24.32-5.973 36.352 0l484.608 223.147c12.245 4.565 12.245 9.899 0 16l-484.565 222.848c-12.245 6.101-24.32 6.101-36.437 0l-484.693-223.061z"></path>
</svg>
